<svg xmlns="http://www.w3.org/2000/svg" id="caret-right-icon" width="14" height="14" x="0" y="0" class="icon" version="1.1" viewBox="0 -1 6 14" xml:space="preserve"><g id="caret-icon" transform="translate(-10.115 0.156)"><path id="Path_7" d="M12.378,12.523l-.671-.671L16.59,6.969,11.707,2.085l.671-.671,5.555,5.555Z" class="path" transform="translate(-1.1 -1.096)"/><path id="Path_8" d="M11.278,11.763a.721.721,0,0,1-1.006-1.006c.544-.753,4.883-4.884,4.883-4.884S10.7,1.481,10.271.989s.411-1.516,1.006-1.006,5.89,5.89,5.89,5.89S11.819,11.313,11.278,11.763Zm-.335-1.006.335.335L16.5,5.873,11.278.654l-.335.335,4.883,4.884Z" class="path" transform="translate(0 0)"/></g></svg>